<?xml version="1.0" encoding="UTF-8"?>
<svg id="Artwork" xmlns="http://www.w3.org/2000/svg" viewBox="0 0 1500 832.32">
  <defs>
    <style>
      .cls-1 {
        fill: #f08;
      }

      .cls-2 {
        fill: #1b2f52;
      }
    </style>
  </defs>
  <path class="cls-2" d="M967.12,458.2h-193.16v-241.08h-241.08V23.96h434.24v434.24ZM508.92,0v241.08h241.08v241.08h241.08V0h-482.16Z"/>
  <path class="cls-2" d="M33.55,637.96v22.81h14.31c8.73,0,14.38-3.17,14.38-11.37s-5.03-11.44-14.38-11.44h-14.31ZM54.81,688.06h-21.26v27.44H0v-104.99h54.81c27.99,0,41.36,17.4,41.36,37.88s-13.37,39.66-41.36,39.66"/>
  <path class="cls-2" d="M153.71,638.2v22.58h14.69c8.74,0,14.38-3.17,14.38-11.37s-5.03-11.21-14.38-11.21h-14.69ZM153.71,715.51h-33.16v-104.99h54.81c27.99,0,41.36,17.24,41.36,37.96,0,16-9.36,28.22-19.09,31.93l25.51,35.18h-39.58l-19.48-27.99h-10.36v27.91Z"/>
  <rect class="cls-2" x="247.11" y="610.52" width="33.55" height="104.99"/>
  <polygon class="cls-2" points="340.5 715.51 308.26 715.51 308.26 610.52 335.08 610.52 380 662.63 380 610.52 412.32 610.52 412.32 715.51 387.27 715.51 340.5 664.1 340.5 715.51"/>
  <path class="cls-2" d="M500.46,608.98c10.52,0,20.57,1.39,32.39,6.18l-2.47,28.53c-7.11-3.56-16.55-6.11-27.37-6.11-16.55,0-31.31,6.57-31.31,24.97s16.31,25.59,32.47,25.59c8.12,0,16.78-2.48,26.21-8.27l5.33,28.22c-13.99,8.04-25.9,8.97-39.12,8.97-32.7,0-59.07-20.87-59.14-54.04,0-36.18,28.68-53.89,63.01-54.04"/>
  <polygon class="cls-2" points="642.88 715.51 560.09 715.51 560.09 610.52 642.65 610.52 642.65 636.96 593.63 636.96 593.63 649.33 638.09 649.33 638.09 675.54 593.63 675.54 593.63 689.3 642.88 689.3 642.88 715.51"/>
  <polygon class="cls-2" points="716.41 610.52 749.11 610.52 765.35 679.25 786.53 611.99 811.19 611.99 832.37 679.25 848.69 610.52 881.31 610.52 853.71 715.51 815.67 715.51 798.82 668.58 782.12 715.51 744.01 715.51 716.41 610.52"/>
  <rect class="cls-2" x="904.84" y="610.52" width="33.55" height="104.99"/>
  <polygon class="cls-2" points="1048.48 715.51 965.99 715.51 965.99 610.52 999.54 610.52 999.54 689.3 1048.48 689.3 1048.48 715.51"/>
  <polygon class="cls-2" points="1154.48 715.51 1071.99 715.51 1071.99 610.52 1105.54 610.52 1105.54 689.3 1154.48 689.3 1154.48 715.51"/>
  <rect class="cls-2" x="1177.99" y="610.52" width="33.55" height="104.99"/>
  <path class="cls-2" d="M1304.85,673.84l-10.52-32.39-10.59,32.39h21.1ZM1276.79,698.81l-6.49,16.7h-35.8l39.82-104.99h40.12l39.66,104.99h-35.79l-6.65-16.7h-34.87Z"/>
  <polygon class="cls-2" points="1403.67 610.52 1438.54 650.1 1473.33 610.52 1500 610.52 1500 715.51 1467.61 715.51 1467.61 660.7 1440.39 691.08 1436.99 691.08 1409.32 660.62 1409.32 715.51 1377.08 715.51 1377.08 610.52 1403.67 610.52"/>
  <rect class="cls-1" x="508.92" y="265.19" width="216.97" height="216.97"/>
  <polygon class="cls-1" points="116.78 831.57 78.77 831.57 78.77 781.02 116.22 781.02 116.22 789.74 88.83 789.74 88.83 801.39 112.79 801.39 112.79 810.1 88.83 810.1 88.83 822.9 116.78 822.9 116.78 831.57"/>
  <path class="cls-1" d="M185.77,828.52c-4.28,2.05-9.57,3.8-17.31,3.8-16.19,0-28.4-10.35-28.4-26.02s12.95-26.02,29.07-26.02c6.1,0,11.91,1.49,15.86,3.31l-.78,9.01c-3.24-1.57-8.41-3.01-14.19-3.01-10.79,0-19.5,5.81-19.5,16.64,0,10.27,8.04,17.01,19.32,17.01,5.69,0,10.87-1.41,14.51-3.61l1.42,8.9Z"/>
  <path class="cls-1" d="M235.4,822.98c9.83,0,16.41-6.7,16.41-16.6s-6.59-16.72-16.41-16.72-16.41,6.89-16.41,16.72,6.66,16.6,16.41,16.6M235.37,780.28c15.63,0,26.76,10.87,26.76,26.13s-11.13,25.91-26.76,25.91-26.73-10.64-26.73-25.91,11.17-26.13,26.73-26.13"/>
  <polygon class="cls-1" points="299.49 831.57 289.44 831.57 289.44 781.02 298.56 781.02 327.63 815.72 327.63 781.02 337.68 781.02 337.68 831.57 328.41 831.57 299.49 797.26 299.49 831.57"/>
  <path class="cls-1" d="M391.75,822.98c9.83,0,16.41-6.7,16.41-16.6s-6.59-16.72-16.41-16.72-16.41,6.89-16.41,16.72,6.66,16.6,16.41,16.6M391.71,780.28c15.63,0,26.76,10.87,26.76,26.13s-11.13,25.91-26.76,25.91-26.73-10.64-26.73-25.91,11.17-26.13,26.73-26.13"/>
  <polygon class="cls-1" points="472.85 816.13 455.84 797.07 455.84 831.58 445.78 831.58 445.78 781.02 454.49 781.02 473.63 803.66 492.69 781.02 501.36 781.02 501.36 831.58 491.35 831.58 491.35 797.03 474.45 816.13 472.85 816.13"/>
  <rect class="cls-1" x="531.28" y="781.02" width="10.05" height="50.55"/>
  <path class="cls-1" d="M614.32,828.52c-4.28,2.05-9.57,3.8-17.31,3.8-16.19,0-28.4-10.35-28.4-26.02s12.95-26.02,29.07-26.02c6.1,0,11.91,1.49,15.86,3.31l-.78,9.01c-3.24-1.57-8.41-3.01-14.19-3.01-10.79,0-19.5,5.81-19.5,16.64,0,10.27,8.04,17.01,19.32,17.01,5.69,0,10.87-1.41,14.52-3.61l1.41,8.9Z"/>
  <path class="cls-1" d="M715.17,806.26c0-10.57-4.99-16.56-16.31-16.56h-10.64v33.2h10.64c11.43,0,16.31-6.15,16.31-16.64M699.94,781.02c16.3,0,25.53,9.68,25.53,25.24s-9.42,25.31-25.53,25.31h-21.78v-50.55h21.78Z"/>
  <polygon class="cls-1" points="790.94 831.57 752.93 831.57 752.93 781.02 790.38 781.02 790.38 789.74 762.98 789.74 762.98 801.39 786.95 801.39 786.95 810.1 762.98 810.1 762.98 822.9 790.94 822.9 790.94 831.57"/>
  <polygon class="cls-1" points="853.3 781.02 864.06 781.02 845.12 831.57 832.46 831.57 813.44 781.02 824.19 781.02 838.79 821.26 853.3 781.02"/>
  <polygon class="cls-1" points="927.21 831.57 889.21 831.57 889.21 781.02 926.65 781.02 926.65 789.74 899.26 789.74 899.26 801.39 923.23 801.39 923.23 810.1 899.26 810.1 899.26 822.9 927.21 822.9 927.21 831.57"/>
  <polygon class="cls-1" points="991.73 831.57 954.47 831.57 954.47 781.02 964.52 781.02 964.52 822.9 991.73 822.9 991.73 831.57"/>
  <path class="cls-1" d="M1038.23,822.98c9.83,0,16.41-6.7,16.41-16.6s-6.59-16.72-16.41-16.72-16.41,6.89-16.41,16.72,6.66,16.6,16.41,16.6M1038.2,780.28c15.63,0,26.76,10.87,26.76,26.13s-11.13,25.91-26.76,25.91-26.73-10.64-26.73-25.91,11.17-26.13,26.73-26.13"/>
  <path class="cls-1" d="M1102.32,789.73v18.28h12.21c5.33,0,9.23-3.68,9.23-9.09,0-5.88-3.99-9.19-9.23-9.19h-12.21ZM1102.32,816.68v14.89h-10.05v-50.55h23.41c10.2,0,18.43,6.44,18.43,17.9,0,10.84-8.23,17.76-18.43,17.76h-13.36Z"/>
  <polygon class="cls-1" points="1187.61 816.13 1170.6 797.07 1170.6 831.58 1160.55 831.58 1160.55 781.02 1169.26 781.02 1188.39 803.66 1207.45 781.02 1216.13 781.02 1216.13 831.58 1206.11 831.58 1206.11 797.03 1189.21 816.13 1187.61 816.13"/>
  <polygon class="cls-1" points="1284.05 831.57 1246.05 831.57 1246.05 781.02 1283.49 781.02 1283.49 789.74 1256.1 789.74 1256.1 801.39 1280.07 801.39 1280.07 810.1 1256.1 810.1 1256.1 822.9 1284.05 822.9 1284.05 831.57"/>
  <polygon class="cls-1" points="1321.36 831.57 1311.31 831.57 1311.31 781.02 1320.43 781.02 1349.5 815.72 1349.5 781.02 1359.55 781.02 1359.55 831.57 1350.29 831.57 1321.36 797.26 1321.36 831.57"/>
  <polygon class="cls-1" points="1400.82 789.96 1385.01 789.96 1385.01 781.02 1426.62 781.02 1426.62 789.96 1410.84 789.96 1410.84 831.57 1400.82 831.57 1400.82 789.96"/>
</svg>